<?xml version="1.0" standalone="no"?>
<!DOCTYPE svg PUBLIC "-//W3C//DTD SVG 20010904//EN"
 "http://www.w3.org/TR/2001/REC-SVG-20010904/DTD/svg10.dtd">
<svg version="1.0" xmlns="http://www.w3.org/2000/svg"
 width="900.000000pt" height="671.000000pt" viewBox="0 0 900.000000 671.000000"
 preserveAspectRatio="xMidYMid meet">

<g transform="translate(0.000000,671.000000) scale(0.100000,-0.100000)"
fill="#000000" stroke="none">
<path d="M671 4373 c4 -32 8 -161 8 -287 1 -341 -32 -532 -133 -761 -65 -147
-92 -230 -111 -349 -26 -158 -14 -311 34 -438 28 -73 101 -173 171 -232 58
-50 176 -114 250 -135 25 -7 55 -17 68 -22 13 -5 34 -9 47 -9 23 0 24 1 10 33
-20 49 -45 180 -45 239 1 208 130 390 350 495 l81 38 -6 65 c-34 381 -270 876
-577 1209 -83 90 -106 131 -74 131 16 0 218 -207 298 -305 225 -278 387 -620
448 -945 22 -122 22 -121 39 -115 9 4 50 11 91 16 41 6 104 17 140 25 67 16
198 63 205 73 2 4 -1 24 -5 46 -5 22 -12 54 -16 70 -11 51 -98 227 -149 300
-210 302 -563 603 -986 839 -75 42 -139 76 -141 76 -2 0 -1 -26 3 -57z"/>
<path d="M3655 4040 c-228 -59 -419 -215 -525 -429 -77 -155 -95 -239 -94
-436 1 -143 3 -169 27 -248 104 -340 342 -542 704 -596 99 -15 186 -14 299 4
146 24 261 68 373 144 73 50 101 97 101 172 0 69 -23 114 -75 144 -62 37 -127
34 -191 -7 -27 -17 -87 -49 -132 -71 -77 -37 -92 -41 -185 -45 -167 -7 -265
25 -360 120 -62 61 -106 145 -110 207 l-2 36 520 5 520 5 38 23 c46 29 85 93
93 154 16 112 -41 339 -116 468 -101 173 -277 303 -472 350 -110 26 -311 26
-413 0z m329 -351 c105 -39 196 -144 235 -273 36 -116 68 -107 -367 -104
l-377 3 1 30 c5 100 79 232 169 301 85 64 233 83 339 43z"/>
<path d="M5772 4041 c-102 -35 -133 -84 -211 -336 -23 -71 -46 -148 -52 -170
-7 -22 -20 -65 -29 -95 -10 -30 -27 -86 -38 -125 -22 -75 -81 -272 -87 -292
-3 -7 -13 -13 -24 -13 -25 0 -32 11 -52 85 -9 33 -56 191 -104 350 -47 160
-98 328 -112 375 -14 47 -34 101 -43 120 -75 148 -305 148 -380 -1 -34 -66
-27 -134 31 -299 122 -345 176 -502 269 -782 120 -358 125 -372 164 -426 45
-64 102 -94 191 -100 165 -10 235 57 305 298 38 130 215 687 231 728 12 31 50
26 60 -8 4 -14 15 -52 24 -85 9 -33 21 -71 25 -85 5 -14 23 -72 40 -130 17
-58 35 -116 40 -130 4 -14 39 -121 76 -238 76 -234 105 -288 179 -326 77 -40
204 -32 276 17 40 27 90 106 114 180 9 29 62 178 117 332 55 154 113 316 128
360 16 44 43 118 60 165 131 357 151 451 110 535 -31 64 -82 96 -163 102 -112
9 -188 -43 -229 -159 -25 -69 -148 -462 -178 -568 -5 -19 -19 -64 -29 -100
-11 -36 -29 -98 -41 -137 -18 -64 -24 -73 -45 -73 -16 0 -26 7 -30 23 -4 12
-31 99 -60 192 -67 213 -150 480 -176 565 -39 127 -60 169 -106 210 -68 60
-156 74 -251 41z"/>
<path d="M7581 4040 c-150 -21 -308 -68 -358 -106 -47 -36 -63 -73 -63 -147 0
-51 5 -70 22 -93 69 -89 135 -101 276 -50 68 24 87 26 231 26 127 0 169 -4
214 -19 144 -47 223 -155 215 -296 -4 -71 4 -69 -138 -29 -87 25 -111 28 -275
28 -158 1 -191 -2 -270 -23 -280 -72 -415 -234 -415 -496 0 -248 120 -406 365
-481 75 -23 311 -26 395 -6 84 21 213 89 261 138 55 57 72 56 87 -1 38 -141
235 -193 357 -93 73 61 70 35 70 598 0 522 0 519 -42 650 -62 194 -225 335
-443 385 -87 20 -385 29 -489 15z m414 -955 c33 -9 76 -24 95 -33 l35 -17 -1
-90 c-1 -76 -5 -98 -27 -141 -60 -118 -188 -184 -358 -184 -123 0 -214 43
-259 123 -30 51 -33 163 -7 212 35 67 121 124 220 145 58 13 230 4 302 -15z"/>
</g>
</svg>
